{
	"asset":{
		"generator":"Khronos glTF Blender I/O v3.6.27",
		"version":"2.0"
	},
	"scene":0,
	"scenes":[
		{
			"name":"Scene",
			"nodes":[
				0
			]
		}
	],
	"nodes":[
		{
			"mesh":0,
			"name":"Earth",
			"translation":[
				0,
				0,
				32.55594253540039
			]
		}
	],
	"materials":[
		{
			"doubleSided":true,
			"name":"Earth.001",
			"pbrMetallicRoughness":{}
		},
		{
			"doubleSided":true,
			"name":"Atmosphere.010",
			"pbrMetallicRoughness":{}
		}
	],
	"meshes":[
		{
			"name":"Icosphere.011",
			"primitives":[
				{
					"attributes":{
						"POSITION":0,
						"NORMAL":1
					},
					"indices":2,
					"material":0
				},
				{
					"attributes":{
						"POSITION":3,
						"NORMAL":4
					},
					"indices":2,
					"material":1
				}
			]
		}
	],
	"accessors":[
		{
			"bufferView":0,
			"componentType":5126,
			"count":10242,
			"max":[
				0.9998708963394165,
				1,
				0.9998708963394165
			],
			"min":[
				-0.9998708963394165,
				-1,
				-0.9998708963394165
			],
			"type":"VEC3"
		},
		{
			"bufferView":1,
			"componentType":5126,
			"count":10242,
			"type":"VEC3"
		},
		{
			"bufferView":2,
			"componentType":5123,
			"count":61440,
			"type":"SCALAR"
		},
		{
			"bufferView":3,
			"componentType":5126,
			"count":10242,
			"max":[
				1.0098695755004883,
				1.0099999904632568,
				1.0098695755004883
			],
			"min":[
				-1.0098696947097778,
				-1.0099999904632568,
				-1.0098695755004883
			],
			"type":"VEC3"
		},
		{
			"bufferView":4,
			"componentType":5126,
			"count":10242,
			"type":"VEC3"
		}
	],
	"bufferViews":[
		{
			"buffer":0,
			"byteLength":122904,
			"byteOffset":0,
			"target":34962
		},
		{
			"buffer":0,
			"byteLength":122904,
			"byteOffset":122904,
			"target":34962
		},
		{
			"buffer":0,
			"byteLength":122880,
			"byteOffset":245808,
			"target":34963
		},
		{
			"buffer":0,
			"byteLength":122904,
			"byteOffset":368688,
			"target":34962
		},
		{
			"buffer":0,
			"byteLength":122904,
			"byteOffset":491592,
			"target":34962
		}
	],
	"buffers":[
		{
			"byteLength":614496,
			"uri":"data:application/octet-stream;base64,"
		}
	]
}
