{
	"asset":{
		"generator":"Khronos glTF Blender I/O v3.6.27",
		"version":"2.0"
	},
	"scene":0,
	"scenes":[
		{
			"name":"Scene",
			"nodes":[
				0
			]
		}
	],
	"nodes":[
		{
			"mesh":0,
			"name":"Jupiter",
			"translation":[
				0,
				0,
				6.956630706787109
			]
		}
	],
	"materials":[
		{
			"doubleSided":true,
			"name":"Jupiter",
			"pbrMetallicRoughness":{}
		},
		{
			"doubleSided":true,
			"name":"Atmosphere.001",
			"pbrMetallicRoughness":{}
		}
	],
	"meshes":[
		{
			"name":"Icosphere.001",
			"primitives":[
				{
					"attributes":{
						"POSITION":0,
						"NORMAL":1
					},
					"indices":2,
					"material":0
				},
				{
					"attributes":{
						"POSITION":3,
						"NORMAL":4
					},
					"indices":2,
					"material":1
				}
			]
		}
	],
	"accessors":[
		{
			"bufferView":0,
			"componentType":5126,
			"count":10242,
			"max":[
				7.39872932434082,
				7.399467468261719,
				7.39830207824707
			],
			"min":[
				-7.39872932434082,
				-7.399467468261719,
				-7.398301601409912
			],
			"type":"VEC3"
		},
		{
			"bufferView":1,
			"componentType":5126,
			"count":10242,
			"type":"VEC3"
		},
		{
			"bufferView":2,
			"componentType":5123,
			"count":61440,
			"type":"SCALAR"
		},
		{
			"bufferView":3,
			"componentType":5126,
			"count":10242,
			"max":[
				7.472716331481934,
				7.473462104797363,
				7.472285270690918
			],
			"min":[
				-7.472715854644775,
				-7.473462104797363,
				-7.472284317016602
			],
			"type":"VEC3"
		},
		{
			"bufferView":4,
			"componentType":5126,
			"count":10242,
			"type":"VEC3"
		}
	],
	"bufferViews":[
		{
			"buffer":0,
			"byteLength":122904,
			"byteOffset":0,
			"target":34962
		},
		{
			"buffer":0,
			"byteLength":122904,
			"byteOffset":122904,
			"target":34962
		},
		{
			"buffer":0,
			"byteLength":122880,
			"byteOffset":245808,
			"target":34963
		},
		{
			"buffer":0,
			"byteLength":122904,
			"byteOffset":368688,
			"target":34962
		},
		{
			"buffer":0,
			"byteLength":122904,
			"byteOffset":491592,
			"target":34962
		}
	],
	"buffers":[
		{
			"byteLength":614496,
			"uri":"data:application/octet-stream;base64,"
		}
	]
}
