{
	"asset":{
		"generator":"Khronos glTF Blender I/O v3.6.27",
		"version":"2.0"
	},
	"scene":0,
	"scenes":[
		{
			"name":"Scene",
			"nodes":[
				0
			]
		}
	],
	"nodes":[
		{
			"mesh":0,
			"name":"Mars",
			"translation":[
				0,
				0,
				25.41720199584961
			]
		}
	],
	"materials":[
		{
			"doubleSided":true,
			"name":"Mars",
			"pbrMetallicRoughness":{}
		},
		{
			"doubleSided":true,
			"name":"Atmosphere.002",
			"pbrMetallicRoughness":{}
		}
	],
	"meshes":[
		{
			"name":"Icosphere.002",
			"primitives":[
				{
					"attributes":{
						"POSITION":0,
						"NORMAL":1
					},
					"indices":2,
					"material":0
				},
				{
					"attributes":{
						"POSITION":3,
						"NORMAL":4
					},
					"indices":2,
					"material":1
				}
			]
		}
	],
	"accessors":[
		{
			"bufferView":0,
			"componentType":5126,
			"count":10242,
			"max":[
				0.6558424830436707,
				0.6558424830436707,
				0.6558424234390259
			],
			"min":[
				-0.6558424234390259,
				-0.6558424830436707,
				-0.6558424234390259
			],
			"type":"VEC3"
		},
		{
			"bufferView":1,
			"componentType":5126,
			"count":10242,
			"type":"VEC3"
		},
		{
			"bufferView":2,
			"componentType":5123,
			"count":61440,
			"type":"SCALAR"
		},
		{
			"bufferView":3,
			"componentType":5126,
			"count":10242,
			"max":[
				0.6624009013175964,
				0.6624009013175964,
				0.6624008417129517
			],
			"min":[
				-0.6624008417129517,
				-0.6624009013175964,
				-0.6624008417129517
			],
			"type":"VEC3"
		},
		{
			"bufferView":4,
			"componentType":5126,
			"count":10242,
			"type":"VEC3"
		}
	],
	"bufferViews":[
		{
			"buffer":0,
			"byteLength":122904,
			"byteOffset":0,
			"target":34962
		},
		{
			"buffer":0,
			"byteLength":122904,
			"byteOffset":122904,
			"target":34962
		},
		{
			"buffer":0,
			"byteLength":122880,
			"byteOffset":245808,
			"target":34963
		},
		{
			"buffer":0,
			"byteLength":122904,
			"byteOffset":368688,
			"target":34962
		},
		{
			"buffer":0,
			"byteLength":122904,
			"byteOffset":491592,
			"target":34962
		}
	],
	"buffers":[
		{
			"byteLength":614496,
			"uri":"data:application/octet-stream;base64,"
		}
	]
}
