{
	"asset":{
		"generator":"Khronos glTF Blender I/O v3.6.27",
		"version":"2.0"
	},
	"scene":0,
	"scenes":[
		{
			"name":"Scene",
			"nodes":[
				0
			]
		}
	],
	"nodes":[
		{
			"mesh":0,
			"name":"Mercury",
			"translation":[
				0,
				0,
				46.52067184448242
			]
		}
	],
	"materials":[
		{
			"doubleSided":true,
			"name":"Mercury",
			"pbrMetallicRoughness":{}
		},
		{
			"doubleSided":true,
			"name":"Atmosphere.003",
			"pbrMetallicRoughness":{}
		}
	],
	"meshes":[
		{
			"name":"Icosphere.003",
			"primitives":[
				{
					"attributes":{
						"POSITION":0,
						"NORMAL":1
					},
					"indices":2,
					"material":0
				},
				{
					"attributes":{
						"POSITION":3,
						"NORMAL":4
					},
					"indices":2,
					"material":1
				}
			]
		}
	],
	"accessors":[
		{
			"bufferView":0,
			"componentType":5126,
			"count":10242,
			"max":[
				0.5376862287521362,
				0.5376870632171631,
				0.537670910358429
			],
			"min":[
				-0.5376862287521362,
				-0.5376870632171631,
				-0.5376709699630737
			],
			"type":"VEC3"
		},
		{
			"bufferView":1,
			"componentType":5126,
			"count":10242,
			"type":"VEC3"
		},
		{
			"bufferView":2,
			"componentType":5123,
			"count":61440,
			"type":"SCALAR"
		},
		{
			"bufferView":3,
			"componentType":5126,
			"count":10242,
			"max":[
				0.5430630445480347,
				0.5430639386177063,
				0.5430476069450378
			],
			"min":[
				-0.5430630445480347,
				-0.5430639386177063,
				-0.5430476665496826
			],
			"type":"VEC3"
		},
		{
			"bufferView":4,
			"componentType":5126,
			"count":10242,
			"type":"VEC3"
		}
	],
	"bufferViews":[
		{
			"buffer":0,
			"byteLength":122904,
			"byteOffset":0,
			"target":34962
		},
		{
			"buffer":0,
			"byteLength":122904,
			"byteOffset":122904,
			"target":34962
		},
		{
			"buffer":0,
			"byteLength":122880,
			"byteOffset":245808,
			"target":34963
		},
		{
			"buffer":0,
			"byteLength":122904,
			"byteOffset":368688,
			"target":34962
		},
		{
			"buffer":0,
			"byteLength":122904,
			"byteOffset":491592,
			"target":34962
		}
	],
	"buffers":[
		{
			"byteLength":614496,
			"uri":"data:application/octet-stream;base64,"
		}
	]
}
