{
	"asset":{
		"generator":"Khronos glTF Blender I/O v3.6.27",
		"version":"2.0"
	},
	"scene":0,
	"scenes":[
		{
			"name":"Scene",
			"nodes":[
				0
			]
		}
	],
	"nodes":[
		{
			"mesh":0,
			"name":"Neptune",
			"translation":[
				0,
				0,
				-58.12979507446289
			]
		}
	],
	"materials":[
		{
			"doubleSided":true,
			"name":"Neptune",
			"pbrMetallicRoughness":{}
		},
		{
			"doubleSided":true,
			"name":"Atmosphere.005",
			"pbrMetallicRoughness":{}
		}
	],
	"meshes":[
		{
			"name":"Icosphere.005",
			"primitives":[
				{
					"attributes":{
						"POSITION":0,
						"NORMAL":1
					},
					"indices":2,
					"material":0
				},
				{
					"attributes":{
						"POSITION":3,
						"NORMAL":4
					},
					"indices":2,
					"material":1
				}
			]
		}
	],
	"accessors":[
		{
			"bufferView":0,
			"componentType":5126,
			"count":10242,
			"max":[
				3.8000385761260986,
				3.8001387119293213,
				3.8001108169555664
			],
			"min":[
				-3.8000385761260986,
				-3.8001387119293213,
				-3.8001108169555664
			],
			"type":"VEC3"
		},
		{
			"bufferView":1,
			"componentType":5126,
			"count":10242,
			"type":"VEC3"
		},
		{
			"bufferView":2,
			"componentType":5123,
			"count":61440,
			"type":"SCALAR"
		},
		{
			"bufferView":3,
			"componentType":5126,
			"count":10242,
			"max":[
				3.8380396366119385,
				3.8381400108337402,
				3.838111639022827
			],
			"min":[
				-3.8380379676818848,
				-3.8381400108337402,
				-3.838111639022827
			],
			"type":"VEC3"
		},
		{
			"bufferView":4,
			"componentType":5126,
			"count":10242,
			"type":"VEC3"
		}
	],
	"bufferViews":[
		{
			"buffer":0,
			"byteLength":122904,
			"byteOffset":0,
			"target":34962
		},
		{
			"buffer":0,
			"byteLength":122904,
			"byteOffset":122904,
			"target":34962
		},
		{
			"buffer":0,
			"byteLength":122880,
			"byteOffset":245808,
			"target":34963
		},
		{
			"buffer":0,
			"byteLength":122904,
			"byteOffset":368688,
			"target":34962
		},
		{
			"buffer":0,
			"byteLength":122904,
			"byteOffset":491592,
			"target":34962
		}
	],
	"buffers":[
		{
			"byteLength":614496,
			"uri":"data:application/octet-stream;base64,"
		}
	]
}
