{
	"asset":{
		"generator":"Khronos glTF Blender I/O v3.6.27",
		"version":"2.0"
	},
	"scene":0,
	"scenes":[
		{
			"name":"Scene",
			"nodes":[
				0
			]
		}
	],
	"nodes":[
		{
			"mesh":0,
			"name":"Saturn",
			"translation":[
				0,
				0,
				-17.260807037353516
			]
		}
	],
	"materials":[
		{
			"doubleSided":true,
			"name":"Saturn",
			"pbrMetallicRoughness":{}
		},
		{
			"doubleSided":true,
			"name":"Atmosphere.007",
			"pbrMetallicRoughness":{}
		},
		{
			"doubleSided":true,
			"name":"Rings",
			"pbrMetallicRoughness":{}
		}
	],
	"meshes":[
		{
			"name":"Icosphere.007",
			"primitives":[
				{
					"attributes":{
						"POSITION":0,
						"NORMAL":1,
						"TEXCOORD_0":2
					},
					"indices":3,
					"material":0
				},
				{
					"attributes":{
						"POSITION":4,
						"NORMAL":5,
						"TEXCOORD_0":6
					},
					"indices":3,
					"material":1
				},
				{
					"attributes":{
						"POSITION":7,
						"NORMAL":8,
						"TEXCOORD_0":9
					},
					"indices":10,
					"material":2
				}
			]
		}
	],
	"accessors":[
		{
			"bufferView":0,
			"componentType":5126,
			"count":10242,
			"max":[
				5.067580223083496,
				5.067544937133789,
				5.066840171813965
			],
			"min":[
				-5.067579746246338,
				-5.067544937133789,
				-5.066839694976807
			],
			"type":"VEC3"
		},
		{
			"bufferView":1,
			"componentType":5126,
			"count":10242,
			"type":"VEC3"
		},
		{
			"bufferView":2,
			"componentType":5126,
			"count":10242,
			"type":"VEC2"
		},
		{
			"bufferView":3,
			"componentType":5123,
			"count":61440,
			"type":"SCALAR"
		},
		{
			"bufferView":4,
			"componentType":5126,
			"count":10242,
			"max":[
				5.118256092071533,
				5.11821985244751,
				5.117508888244629
			],
			"min":[
				-5.118255138397217,
				-5.118220329284668,
				-5.1175079345703125
			],
			"type":"VEC3"
		},
		{
			"bufferView":5,
			"componentType":5126,
			"count":10242,
			"type":"VEC3"
		},
		{
			"bufferView":6,
			"componentType":5126,
			"count":10242,
			"type":"VEC2"
		},
		{
			"bufferView":7,
			"componentType":5126,
			"count":576,
			"max":[
				11.803435325622559,
				2.1853952407836914,
				11.590275764465332
			],
			"min":[
				-11.803434371948242,
				-2.3431174755096436,
				-11.599418640136719
			],
			"type":"VEC3"
		},
		{
			"bufferView":8,
			"componentType":5126,
			"count":576,
			"type":"VEC3"
		},
		{
			"bufferView":9,
			"componentType":5126,
			"count":576,
			"type":"VEC2"
		},
		{
			"bufferView":10,
			"componentType":5123,
			"count":2304,
			"type":"SCALAR"
		}
	],
	"bufferViews":[
		{
			"buffer":0,
			"byteLength":122904,
			"byteOffset":0,
			"target":34962
		},
		{
			"buffer":0,
			"byteLength":122904,
			"byteOffset":122904,
			"target":34962
		},
		{
			"buffer":0,
			"byteLength":81936,
			"byteOffset":245808,
			"target":34962
		},
		{
			"buffer":0,
			"byteLength":122880,
			"byteOffset":327744,
			"target":34963
		},
		{
			"buffer":0,
			"byteLength":122904,
			"byteOffset":450624,
			"target":34962
		},
		{
			"buffer":0,
			"byteLength":122904,
			"byteOffset":573528,
			"target":34962
		},
		{
			"buffer":0,
			"byteLength":81936,
			"byteOffset":696432,
			"target":34962
		},
		{
			"buffer":0,
			"byteLength":6912,
			"byteOffset":778368,
			"target":34962
		},
		{
			"buffer":0,
			"byteLength":6912,
			"byteOffset":785280,
			"target":34962
		},
		{
			"buffer":0,
			"byteLength":4608,
			"byteOffset":792192,
			"target":34962
		},
		{
			"buffer":0,
			"byteLength":4608,
			"byteOffset":796800,
			"target":34963
		}
	],
	"buffers":[
		{
			"byteLength":801408,
			"uri":"data:application/octet-stream;base64,"
		}
	]
}
