{
	"asset":{
		"generator":"Khronos glTF Blender I/O v3.6.27",
		"version":"2.0"
	},
	"extensionsUsed":[
		"KHR_materials_emissive_strength"
	],
	"scene":0,
	"scenes":[
		{
			"name":"Scene",
			"nodes":[
				0
			]
		}
	],
	"nodes":[
		{
			"mesh":0,
			"name":"Sun",
			"translation":[
				0,
				0,
				85.62903594970703
			]
		}
	],
	"materials":[
		{
			"doubleSided":true,
			"emissiveFactor":[
				1,
				1,
				1
			],
			"emissiveTexture":{
				"index":0
			},
			"extensions":{
				"KHR_materials_emissive_strength":{
					"emissiveStrength":2
				}
			},
			"name":"Sun",
			"pbrMetallicRoughness":{
				"baseColorFactor":[
					0,
					0,
					0,
					1
				]
			}
		},
		{
			"doubleSided":true,
			"emissiveFactor":[
				1,
				0.8172101974487305,
				0.2510100305080414
			],
			"extensions":{
				"KHR_materials_emissive_strength":{
					"emissiveStrength":3.000000238418579
				}
			},
			"name":"SunGlare",
			"pbrMetallicRoughness":{
				"baseColorFactor":[
					0,
					0,
					0,
					1
				]
			}
		}
	],
	"meshes":[
		{
			"name":"Icosphere.008",
			"primitives":[
				{
					"attributes":{
						"POSITION":0,
						"NORMAL":1
					},
					"indices":2,
					"material":0
				},
				{
					"attributes":{
						"POSITION":3,
						"NORMAL":4
					},
					"indices":2,
					"material":1
				}
			]
		}
	],
	"textures":[
		{
			"sampler":0,
			"source":0
		}
	],
	"images":[
		{
			"bufferView":3,
			"mimeType":"image/jpeg",
			"name":"Sun"
		}
	],
	"accessors":[
		{
			"bufferView":0,
			"componentType":5126,
			"count":10242,
			"max":[
				30.198543548583984,
				30.19854736328125,
				30.198410034179688
			],
			"min":[
				-30.198545455932617,
				-30.19854736328125,
				-30.198413848876953
			],
			"type":"VEC3"
		},
		{
			"bufferView":1,
			"componentType":5126,
			"count":10242,
			"type":"VEC3"
		},
		{
			"bufferView":2,
			"componentType":5123,
			"count":61440,
			"type":"SCALAR"
		},
		{
			"bufferView":4,
			"componentType":5126,
			"count":10242,
			"max":[
				30.50053596496582,
				30.500532150268555,
				30.50039291381836
			],
			"min":[
				-30.50052261352539,
				-30.500532150268555,
				-30.50040054321289
			],
			"type":"VEC3"
		},
		{
			"bufferView":5,
			"componentType":5126,
			"count":10242,
			"type":"VEC3"
		}
	],
	"bufferViews":[
		{
			"buffer":0,
			"byteLength":122904,
			"byteOffset":0,
			"target":34962
		},
		{
			"buffer":0,
			"byteLength":122904,
			"byteOffset":122904,
			"target":34962
		},
		{
			"buffer":0,
			"byteLength":122880,
			"byteOffset":245808,
			"target":34963
		},
		{
			"buffer":0,
			"byteLength":297682,
			"byteOffset":368688
		},
		{
			"buffer":0,
			"byteLength":122904,
			"byteOffset":666372,
			"target":34962
		},
		{
			"buffer":0,
			"byteLength":122904,
			"byteOffset":789276,
			"target":34962
		}
	],
	"samplers":[
		{
			"magFilter":9729,
			"minFilter":9987
		}
	],
	"buffers":[
		{
			"byteLength":912180,
			"uri":"data:application/octet-stream;base64,"
		}
	]
}
