{
	"asset":{
		"generator":"Khronos glTF Blender I/O v3.6.27",
		"version":"2.0"
	},
	"scene":0,
	"scenes":[
		{
			"name":"Scene",
			"nodes":[
				0
			]
		}
	],
	"nodes":[
		{
			"mesh":0,
			"name":"Uranus",
			"translation":[
				0,
				0,
				-42.27963638305664
			]
		}
	],
	"materials":[
		{
			"doubleSided":true,
			"name":"Uranus",
			"pbrMetallicRoughness":{}
		},
		{
			"doubleSided":true,
			"name":"Atmosphere.008",
			"pbrMetallicRoughness":{}
		},
		{
			"doubleSided":true,
			"name":"Rings.001",
			"pbrMetallicRoughness":{}
		}
	],
	"meshes":[
		{
			"name":"Icosphere.009",
			"primitives":[
				{
					"attributes":{
						"POSITION":0,
						"NORMAL":1,
						"TEXCOORD_0":2
					},
					"indices":3,
					"material":0
				},
				{
					"attributes":{
						"POSITION":4,
						"NORMAL":5,
						"TEXCOORD_0":6
					},
					"indices":3,
					"material":1
				},
				{
					"attributes":{
						"POSITION":7,
						"NORMAL":8,
						"TEXCOORD_0":9
					},
					"indices":10,
					"material":2
				}
			]
		}
	],
	"accessors":[
		{
			"bufferView":0,
			"componentType":5126,
			"count":10242,
			"max":[
				3.907069683074951,
				3.906850814819336,
				3.9067232608795166
			],
			"min":[
				-3.9070699214935303,
				-3.906850814819336,
				-3.9067232608795166
			],
			"type":"VEC3"
		},
		{
			"bufferView":1,
			"componentType":5126,
			"count":10242,
			"type":"VEC3"
		},
		{
			"bufferView":2,
			"componentType":5126,
			"count":10242,
			"type":"VEC2"
		},
		{
			"bufferView":3,
			"componentType":5123,
			"count":61440,
			"type":"SCALAR"
		},
		{
			"bufferView":4,
			"componentType":5126,
			"count":10242,
			"max":[
				3.9461405277252197,
				3.9459195137023926,
				3.9457907676696777
			],
			"min":[
				-3.9461405277252197,
				-3.9459190368652344,
				-3.9457900524139404
			],
			"type":"VEC3"
		},
		{
			"bufferView":5,
			"componentType":5126,
			"count":10242,
			"type":"VEC3"
		},
		{
			"bufferView":6,
			"componentType":5126,
			"count":10242,
			"type":"VEC2"
		},
		{
			"bufferView":7,
			"componentType":5126,
			"count":704,
			"max":[
				7.444347381591797,
				7.292198657989502,
				1.4912869930267334
			],
			"min":[
				-7.4443464279174805,
				-7.296123027801514,
				-1.5104318857192993
			],
			"type":"VEC3"
		},
		{
			"bufferView":8,
			"componentType":5126,
			"count":704,
			"type":"VEC3"
		},
		{
			"bufferView":9,
			"componentType":5126,
			"count":704,
			"type":"VEC2"
		},
		{
			"bufferView":10,
			"componentType":5123,
			"count":2304,
			"type":"SCALAR"
		}
	],
	"bufferViews":[
		{
			"buffer":0,
			"byteLength":122904,
			"byteOffset":0,
			"target":34962
		},
		{
			"buffer":0,
			"byteLength":122904,
			"byteOffset":122904,
			"target":34962
		},
		{
			"buffer":0,
			"byteLength":81936,
			"byteOffset":245808,
			"target":34962
		},
		{
			"buffer":0,
			"byteLength":122880,
			"byteOffset":327744,
			"target":34963
		},
		{
			"buffer":0,
			"byteLength":122904,
			"byteOffset":450624,
			"target":34962
		},
		{
			"buffer":0,
			"byteLength":122904,
			"byteOffset":573528,
			"target":34962
		},
		{
			"buffer":0,
			"byteLength":81936,
			"byteOffset":696432,
			"target":34962
		},
		{
			"buffer":0,
			"byteLength":8448,
			"byteOffset":778368,
			"target":34962
		},
		{
			"buffer":0,
			"byteLength":8448,
			"byteOffset":786816,
			"target":34962
		},
		{
			"buffer":0,
			"byteLength":5632,
			"byteOffset":795264,
			"target":34962
		},
		{
			"buffer":0,
			"byteLength":4608,
			"byteOffset":800896,
			"target":34963
		}
	],
	"buffers":[
		{
			"byteLength":805504,
			"uri":"data:application/octet-stream;base64,"
		}
	]
}
